<svg viewBox="0 0 512 512" version="1.1" xmlns="http://www.w3.org/2000/svg" xmlns:xlink="http://www.w3.org/1999/xlink"><title>Logo</title><g id="Logo" stroke="none" stroke-width="1" fill="none" fill-rule="evenodd"><g id="Dark" transform="translate(24.000000, 34.000000)" fill-rule="nonzero"><path d="M9.84040259,121.104988 L95.4018692,157.033833 L95.4018692,162.144402 L95.4018692,207.829787 L95.4018692,239.422393 C95.4018692,240.661318 95.5686556,241.900244 95.9022286,242.984304 C61.7109993,298.735961 75.721064,368.580398 131.42775,410.703872 C160.115025,432.849669 196.307692,444 232.333573,444 C268.359454,444 304.552121,432.849669 333.239396,410.703872 C361.426312,388.867806 379.939612,358.978723 385.109993,326.456924 C389.780014,297.651901 383.775701,268.692013 368.097771,243.448901 C368.431344,242.209976 368.598131,240.816184 368.598131,239.422393 L368.598131,207.829787 L368.598131,162.144402 L368.598131,157.033833 L404.790798,141.856993 L404.790798,177.476107 L404.790798,192.652947 C404.790798,201.170562 412.29619,208.139519 421.469446,208.139519 C430.642703,208.139519 438.148095,201.170562 438.148095,192.652947 L438.148095,177.476107 L438.148095,130.551796 L438.148095,127.919079 L454.159597,121.259854 C460.163911,118.782002 464,113.206836 464,107.167074 C463.833214,100.972445 459.997124,95.3972794 454.159597,92.919428 L238.838246,1.39379142 C234.501797,-0.46459714 229.331416,-0.46459714 224.994968,1.39379142 L9.6736161,92.919428 C3.66930266,95.3972794 0,100.972445 0,107.012208 C0,113.051971 3.83608914,118.627136 9.84040259,121.104988 Z" id="Dark-Edge" fill="#231068"></path><path d="M311.742612,386.613241 L311.742612,386.613241 C266.366063,421.795586 197.967588,421.795586 152.591039,386.613241 L152.424214,386.458253 C109.883699,354.375674 98.8732126,300.904709 124.564347,258.437913 L227.49571,285.560866 C228.99714,286.025831 230.49857,286.18082 232,286.18082 C233.50143,286.18082 235.00286,286.025831 236.50429,285.560866 L339.102002,258.437913 C365.460439,300.904709 354.783603,353.445744 311.742612,386.613241 Z M335.265014,170.559544 L335.265014,227.440252 L232,254.718194 L128.734986,227.440252 L128.734986,170.559544 L225.160153,211.011492 C227.328885,211.941422 229.664442,212.406387 232,212.406387 C234.335558,212.406387 236.671115,211.941422 238.839847,211.011492 L335.265014,170.559544 Z M232,32 L407,106.394386 L232,179.858843 L57,106.394386 L232,32 Z" id="Dark-Fill" fill="#4701DE"></path></g><g id="Light" transform="translate(255.882382, 34.000000)" fill-rule="nonzero"><path d="M0.0172494623,0.000192153504 C2.42114273,-0.0108461256 4.82754102,0.453686963 7.02059299,1.39379142 L222.280044,92.919428 C228.115893,95.3972794 231.950879,100.972445 232.117618,107.167074 C232.117618,113.206836 228.282631,118.782002 222.280044,121.259854 L206.273144,127.919079 L206.273144,192.652947 C206.273144,201.170562 198.76991,208.139519 189.599291,208.139519 C180.428671,208.139519 172.925437,201.170562 172.925437,192.652947 L172.925437,141.856993 L136.743175,157.033833 L136.743175,239.422393 C136.743175,240.816184 136.576436,242.209976 136.242959,243.448901 C151.916381,268.692013 157.918969,297.651901 153.25029,326.456924 C148.081395,358.978723 129.573417,388.867806 101.394605,410.703872 C72.7155765,432.849669 36.533314,444 0.517790053,444 C0.350896985,444 0.184000338,443.999761 0.0171008728,443.999282 Z" id="Light-Fill" fill="#DBA8FF"></path><path d="M0.0166784999,8.44017507e-06 C2.39923325,-0.00228375061 4.78230356,0.462310576 6.95586343,1.39379142 L222.277215,92.919428 C228.114742,95.3972794 231.950831,100.972445 232.117618,107.167074 C232.117618,113.206836 228.281528,118.782002 222.277215,121.259854 L206.265712,127.919079 L206.265712,192.652947 C206.265712,201.170562 198.760321,208.139519 189.587064,208.139519 C180.413807,208.139519 172.908416,201.170562 172.908416,192.652947 L172.908416,141.856993 L136.715748,157.033833 L136.715748,239.422393 C136.715748,240.816184 136.548962,242.209976 136.215389,243.448901 C151.893318,268.692013 157.897632,297.651901 153.22761,326.456924 C148.057229,358.978723 129.54393,388.867806 101.357014,410.703872 C72.6697383,432.849669 36.4770712,444 0.451190534,444 C0.306419865,444 0.161646503,443.99982 0.0168709459,443.99946 L0.0173816206,412.999919 C28.4470738,413.030661 56.8868558,404.267088 79.5639264,386.7092 L80.8425707,385.712032 C122.717835,352.616326 132.898389,300.889235 106.86201,259 L4.49419668,286.024317 C2.99613112,286.487591 1.49806556,286.642016 5.68434189e-14,286.642016 L0.017,286.642 L0.017,254.974 L0.117617565,255 L103.117618,227.773481 L103.117618,171 L6.93991159,211.375691 C4.77674519,212.303867 2.44718138,212.767956 0.117617565,212.767956 C0.0842188004,212.767956 0.050820036,212.76786 0.017421762,212.76767 L0.017,179.958 L0.117617565,180 L175.117618,106.465409 L0.117617565,32 L0.017,32.043 Z" id="Light-Edge" fill="#7B01FF"></path></g></g></svg>
