<?xml version="1.0" encoding="UTF-8" standalone="no"?>
<svg
   viewBox="0 0 587.43699 174.33"
   version="1.1"
   id="svg809"
   sodipodi:docname="voila_logo_bleu.svg"
   xml:space="preserve"
   width="587.43701"
   height="174.33"
   inkscape:version="1.2.2 (b0a8486, 2022-12-01)"
   xmlns:inkscape="http://www.inkscape.org/namespaces/inkscape"
   xmlns:sodipodi="http://sodipodi.sourceforge.net/DTD/sodipodi-0.dtd"
   xmlns="http://www.w3.org/2000/svg"
   xmlns:svg="http://www.w3.org/2000/svg"
   xmlns:rdf="http://www.w3.org/1999/02/22-rdf-syntax-ns#"
   xmlns:cc="http://creativecommons.org/ns#"
   xmlns:dc="http://purl.org/dc/elements/1.1/"><sodipodi:namedview
     id="namedview811"
     pagecolor="#ffffff"
     bordercolor="#000000"
     borderopacity="0.25"
     inkscape:showpageshadow="2"
     inkscape:pageopacity="0.0"
     inkscape:pagecheckerboard="true"
     inkscape:deskcolor="#d1d1d1"
     showgrid="false"
     inkscape:zoom="1.623618"
     inkscape:cx="312.26557"
     inkscape:cy="8.3147636"
     inkscape:window-width="1862"
     inkscape:window-height="1016"
     inkscape:window-x="0"
     inkscape:window-y="0"
     inkscape:window-maximized="1"
     inkscape:current-layer="svg809" /><defs
     id="defs799"><style
       id="style797">.cls-1{fill:#5dbcaf;}.cls-2{fill:#f8e14b;}</style><clipPath
       clipPathUnits="userSpaceOnUse"
       id="clipPath994"><rect
         style="fill:#000000;fill-rule:evenodd"
         id="rect996"
         width="305.39331"
         height="311.66061"
         x="-5.1596708"
         y="-12.689981" /></clipPath></defs><title
     id="title801">BLEU-fond-transparent</title><g
     id="Calque_2"
     data-name="Calque 2"
     transform="translate(184.05371,4.606775)"><g
       id="Calque_1-2"
       data-name="Calque 1"><path
         class="cls-1"
         d="m 77.39,94.6 a 20.39,20.39 0 0 1 -2.08,0.11 19.6,19.6 0 0 1 -2.06,-0.12 h -0.39 v 0.39 a 54.76,54.76 0 0 1 -2.1,19.46 90.47,90.47 0 0 1 -14.66,28.5 94.15,94.15 0 0 1 -17,17.44 c -6.63,5 -12.85,7.48 -18.46,7.48 -4.27,0 -7.7,-0.76 -10.19,-2.26 a 19,19 0 0 1 -5.61,-4.72 c -5,-6.37 -6.21,-17.1 -3.47,-31.88 1.87,-11.53 6.31,-26.43 13.19,-44.31 a 4.92,4.92 0 0 1 2.71,-2.88 5.92,5.92 0 0 1 2.44,-0.54 6.37,6.37 0 0 1 1.77,0.26 6.6,6.6 0 0 1 3.23,2.79 3.43,3.43 0 0 1 0.15,3.5 v 0.1 a 294.43,294.43 0 0 0 -10,30.48 126.23,126.23 0 0 0 -3.72,19.75 c -0.41,5.14 -0.28,8.92 0.4,11.56 a 17.06,17.06 0 0 0 2.21,5.61 7.9,7.9 0 0 0 2.36,1.89 9.62,9.62 0 0 0 4.56,0.85 c 2.89,0 6.72,-1.73 11.7,-5.28 4.77,-3.4 9.63,-8.46 14.43,-15.05 a 90.13,90.13 0 0 0 7.23,-11.24 76.07,76.07 0 0 0 5.56,-12.83 52,52 0 0 0 2.57,-13.18 A 27,27 0 0 0 60,88 a 3.69,3.69 0 0 1 0.07,-3.55 6.14,6.14 0 0 1 1,-1.29 l 0.05,-0.07 a 5.39,5.39 0 0 1 0.4,-0.54 4.81,4.81 0 0 1 3.57,-1.55 5.1,5.1 0 0 1 3.07,1.08 5.56,5.56 0 0 1 1.24,1 10.44,10.44 0 0 0 5.93,1.92 8.47,8.47 0 0 0 1,-0.06 10.46,10.46 0 0 0 6.67,-3.56 4.87,4.87 0 0 1 3.71,-1.72 4.88,4.88 0 0 1 3.71,8 20.21,20.21 0 0 1 -13.03,6.94 z M 201.56,66.76 A 5.26,5.26 0 0 0 208,63 a 30.2,30.2 0 0 1 2,-5.26 31.09,31.09 0 0 1 2.23,-3.89 5.27,5.27 0 1 0 -8.73,-5.9 41,41 0 0 0 -5.62,12.37 5.25,5.25 0 0 0 3.73,6.44 z m -34.14,41.61 c 1.69,21.74 -13.42,50.21 -38.62,57.94 A 44,44 0 0 1 115.68,168.58 26.29,26.29 0 0 1 102,165 c -9.81,-5.91 -12.34,-16.63 -13.29,-20.66 -4.77,-20.24 7.94,-38.52 13.63,-45.44 4.11,-5 19,-21.13 38.71,-18.9 3.47,0.4 12.7,1.45 19.51,9.76 5.35,6.55 6.44,13.76 6.86,18.61 z m -10.67,0.83 c -0.29,-3.7 -1.06,-8.49 -4.51,-12.7 -4.06,-5 -9.73,-5.6 -12.45,-5.91 a 23.5,23.5 0 0 0 -2.52,-0.14 c -13.18,0 -23.78,11.64 -26.71,15.2 -4.68,5.69 -15.16,20.61 -11.49,36.2 0.73,3.1 2.45,10.36 8.4,14 6.44,3.88 14.38,1.45 18.19,0.29 v 0.15 -0.16 c 20,-6.13 32.44,-29.68 31.09,-46.93 z m 246.47,26.87 c -0.8,2.87 -8.35,28.11 -28.46,32.05 a 30,30 0 0 1 -5.83,0.6 20.65,20.65 0 0 1 -11.73,-3.4 c -6.52,-4.39 -10.11,-12.51 -9.66,-21.81 l -2,2.42 a 80.29,80.29 0 0 1 -6.27,6.69 c -2.16,2 -4.35,3.94 -6.51,5.63 a 46.86,46.86 0 0 1 -15.87,8.21 24.58,24.58 0 0 1 -14.92,0.23 19,19 0 0 1 -7.8,-5 21.82,21.82 0 0 1 -4.75,-8.28 26.43,26.43 0 0 1 -1.22,-6.81 83.12,83.12 0 0 1 -12.87,11.51 c -6.31,4.53 -12.43,6.83 -18.19,6.83 -4.54,0 -8.09,-0.82 -10.56,-2.43 a 19.48,19.48 0 0 1 -5.63,-5.14 c -2.55,-3.59 -4,-8.48 -4.42,-14.52 -1.61,1.85 -3.14,3.53 -4.66,5.11 a 102.19,102.19 0 0 1 -15.61,13.39 c -7,4.41 -13.66,6.64 -19.75,6.64 -4.6,0 -8.29,-0.76 -11,-2.25 a 20.22,20.22 0 0 1 -6.1,-4.73 c -5.51,-6.42 -6.79,-17.22 -3.8,-32.09 2,-11.55 6.85,-26.47 14.31,-44.36 a 5.2,5.2 0 0 1 3,-3 6.66,6.66 0 0 1 4.5,-0.26 6.37,6.37 0 0 1 3.58,2.79 3.69,3.69 0 0 1 0,3.81 v 0.08 a 278.26,278.26 0 0 0 -10.83,30.45 116.68,116.68 0 0 0 -4,19.82 c -0.45,5.17 -0.31,8.92 0.43,11.47 a 16,16 0 0 0 2.29,5.33 l 0.05,0.06 a 8.31,8.31 0 0 0 2.55,1.89 11.3,11.3 0 0 0 5,0.86 c 3.5,0 7.45,-1.4 12.08,-4.29 a 73.36,73.36 0 0 0 13.92,-11.85 c 2.07,-2.17 4,-4.36 5.62,-6.49 1.39,-1.8 2.35,-2.92 3,-3.74 0.65,-0.82 1,-1.18 1.42,-1.75 a 61.19,61.19 0 0 0 3.84,-5.85 50.71,50.71 0 0 0 3.11,-6.58 c 1.5,-6.35 3.55,-13.46 6.09,-21.09 2.34,-6.72 4.93,-13.66 7.67,-20.63 2.74,-6.97 5.54,-13.76 8.39,-20.42 2.85,-6.66 13.24,-29.51 16,-35.37 l 7.8,-16.64 a 5.51,5.51 0 0 1 3.1,-2.74 5.67,5.67 0 0 1 2.14,-0.42 6,6 0 0 1 2.14,0.41 5,5 0 0 1 2.86,2.87 4.55,4.55 0 0 1 -0.09,3.92 C 281.4,37 262.84,79.54 256.31,99 c -4.59,13.45 -7.39,24.68 -8.34,33.38 -0.82,6.13 -0.89,10.5 -0.22,13.35 a 16.6,16.6 0 0 0 2.32,6 6.09,6.09 0 0 0 2.28,2.1 9.5,9.5 0 0 0 4.77,1 c 3.23,0 6.87,-1.45 11.15,-4.42 a 73.22,73.22 0 0 0 12.82,-11.93 l 0.63,-0.71 c 1.26,-1.44 2.83,-3.22 4.63,-5.63 a 82.8,82.8 0 0 0 5.07,-7.78 l 1.15,-1.93 c 6.3,-10.45 8.5,-13.15 9.61,-14.28 a 91.3,91.3 0 0 1 9.13,-10 c 4.62,-4.38 11,-10.38 20.76,-13.87 a 45.63,45.63 0 0 1 5,-1.45 l 0.88,-0.22 c 7.2,-2.08 13.31,-1.84 18.68,0.72 a 19.88,19.88 0 0 1 9.56,8.66 c 3.24,6.23 2.57,13.48 -2.32,25 a 75.27,75.27 0 0 0 -4.64,25.65 34.57,34.57 0 0 0 0.9,8.81 v 0.11 l -0.1,0.07 -0.14,0.08 v 0 a 10,10 0 0 0 3.48,4.41 c 3.36,2.26 7.6,1.43 9.2,1.12 13.84,-2.71 19.83,-23.9 19.89,-24.11 a 5.56,5.56 0 0 1 6.84,-3.88 5.56,5.56 0 0 1 3.88,6.85 z m -46.87,-39 a 9.29,9.29 0 0 0 -4.48,-3.74 c -4.39,-2.1 -9.23,-0.7 -14.22,1 -13.19,4.62 -23,15.31 -28.83,23.47 l -0.09,0.13 v 0 a 60.62,60.62 0 0 0 -7.28,15.74 c -1.8,5.82 -2.37,10.89 -1.71,15.08 0.73,4.56 2.74,7.4 6,8.45 2,0.67 4.73,0.57 8.19,-0.29 3.46,-0.86 7.27,-2.94 11.7,-6.24 A 102.09,102.09 0 0 0 338.38,137.92 103.2,103.2 0 0 0 351,118.44 c 4.74,-9.91 7.45,-17.34 5.35,-21.39 z"
         id="path803" /><path
         class="cls-2"
         d="m 381.52,72.31 a 43.42,43.42 0 0 1 -43.38,-43.37 5.59,5.59 0 1 1 11.18,0 32.24,32.24 0 0 0 32.2,32.2 5.59,5.59 0 0 1 0,11.17 z"
         id="path805" /></g></g><metadata
     id="metadata813"><rdf:RDF><cc:Work
         rdf:about=""><dc:title>BLEU-fond-transparent</dc:title></cc:Work></rdf:RDF></metadata><style
     type="text/css"
     id="style815">
	.st0{display:none;}
	.st1{fill:#FFFFFF;stroke:#1D1D1B;}
	.st2{fill-rule:evenodd;clip-rule:evenodd;fill:#646363;}
	.st3{fill-rule:evenodd;clip-rule:evenodd;fill:#006699;}
</style><g
     id="g935"
     transform="matrix(0.58754354,0,0,0.58754354,0,4)"
     clip-path="url(#clipPath994)"><g
       id="Hintergrund"
       class="st0">
</g><g
       id="Hilfslinien_anzeigen"
       class="st0">
</g><g
       id="Vordergrund">
	<rect
   x="13.79"
   y="19.469999"
   class="st1"
   width="251.35001"
   height="242.62"
   id="rect819" />
	<g
   id="g887">
		<g
   id="g851">
			<g
   id="g843">
				<polygon
   class="st2"
   points="733.7,124.99 747.4,124.99 747.4,118.21 712.45,118.21 712.45,124.99 726.15,124.99 726.15,167.97 733.7,167.97 "
   id="polygon821" />
				<path
   class="st2"
   d="m 700.43,151.55 h -15.31 l 7.76,-22.09 z m 13.55,16.42 -18.24,-49.76 h -6.08 l -18.24,49.76 h 8.04 l 3.42,-9.99 h 19.64 l 3.42,9.99 z"
   id="path823" />
				<polygon
   class="st2"
   points="659.28,124.99 672.97,124.99 672.97,118.21 638.03,118.21 638.03,124.99 651.73,124.99 651.73,167.97 659.28,167.97 "
   id="polygon825" />
				<rect
   x="621.88"
   y="118.21"
   class="st2"
   width="7.5500002"
   height="49.759998"
   id="rect827" />
				<path
   class="st2"
   d="m 611.75,153.78 c 0,-4.26 -1.33,-7.83 -4.05,-10.2 -2.09,-1.89 -4.68,-3 -9.29,-3.7 l -5.66,-0.84 c -2.31,-0.35 -4.33,-1.19 -5.59,-2.31 -1.33,-1.19 -1.88,-2.79 -1.88,-4.61 0,-4.4 3.21,-7.76 9.08,-7.76 4.19,0 7.76,0.91 10.83,3.84 l 4.82,-4.75 c -4.26,-3.99 -8.87,-5.66 -15.44,-5.66 -10.34,0 -16.63,5.94 -16.63,14.61 0,4.06 1.19,7.2 3.63,9.51 2.17,2.03 5.38,3.42 9.44,3.98 l 5.87,0.84 c 2.94,0.42 4.19,0.91 5.45,2.1 1.33,1.19 1.96,3 1.96,5.17 0,4.82 -3.78,7.62 -10.28,7.62 -5.1,0 -9.08,-1.12 -12.72,-4.75 l -5.03,4.96 c 4.75,4.82 10.13,6.57 17.61,6.57 10.41,-0.01 17.88,-5.46 17.88,-14.62 z"
   id="path829" />
				<path
   class="st2"
   d="m 562.07,132.81 c 0,4.89 -3.42,7.76 -8.45,7.76 h -11.18 v -15.59 h 11.18 c 5.03,0.01 8.45,2.94 8.45,7.83 z m 9.09,35.16 -11.46,-22.02 c 5.59,-1.54 9.92,-6.08 9.92,-13.21 0,-8.46 -6.01,-14.54 -15.44,-14.54 h -19.29 v 49.76 h 7.55 V 147 h 9.44 l 10.48,20.97 z"
   id="path831" />
				<polygon
   class="st2"
   points="500.31,124.99 524.56,124.99 524.56,118.21 492.76,118.21 492.76,167.97 524.56,167.97 524.56,161.19 500.31,161.19 500.31,146.23 521,146.23 521,139.53 500.31,139.53 "
   id="polygon833" />
				<polygon
   class="st2"
   points="455.02,118.21 447.19,118.21 463.55,167.97 469.42,167.97 485.91,118.21 477.94,118.21 466.48,154.41 "
   id="polygon835" />
				<rect
   x="432.79999"
   y="118.21"
   class="st2"
   width="7.5500002"
   height="49.759998"
   id="rect837" />
				<polygon
   class="st2"
   points="419.8,118.21 412.25,118.21 412.25,153.15 389.26,118.21 382.34,118.21 382.34,167.97 389.89,167.97 389.89,132.95 412.88,167.97 419.8,167.97 "
   id="polygon839" />
				<path
   class="st2"
   d="m 370.12,151.2 v -32.99 h -7.55 v 32.64 c 0,6.64 -4.12,10.76 -10.34,10.76 -6.22,0 -10.27,-4.12 -10.27,-10.76 v -32.64 h -7.55 v 32.99 c 0,10.28 7.69,17.19 17.82,17.19 10.13,0 17.89,-6.92 17.89,-17.19 z"
   id="path841" />
			</g>
			<g
   id="g849">
				<rect
   x="681.76001"
   y="105.49"
   class="st2"
   width="6.4299998"
   height="7.5500002"
   id="rect845" />
				<rect
   x="696.85999"
   y="105.49"
   class="st2"
   width="6.4299998"
   height="7.5500002"
   id="rect847" />
			</g>
		</g>
		<g
   id="g873">
			<polygon
   class="st2"
   points="668.36,78.29 675.91,78.29 675.91,56.56 696.11,56.56 696.11,78.29 703.66,78.29 703.66,28.53 696.11,28.53 696.11,49.78 675.91,49.78 675.91,28.53 668.36,28.53 "
   id="polygon853" />
			<path
   class="st2"
   d="m 658.3,63.41 h -7.61 c -1.19,5.03 -4.61,8.52 -10.13,8.52 -2.93,0 -5.59,-1.12 -7.34,-3 -2.45,-2.66 -3.01,-5.52 -3.01,-15.52 0,-10 0.56,-12.86 3.01,-15.52 1.75,-1.89 4.4,-3 7.34,-3 5.52,0 8.87,3.49 10.06,8.53 h 7.69 c -1.74,-9.93 -8.6,-15.31 -17.75,-15.31 -5.17,0 -9.65,1.89 -13.07,5.31 -4.89,4.89 -4.82,10.41 -4.82,19.99 0,9.58 -0.07,15.1 4.82,19.99 3.43,3.43 7.9,5.31 13.07,5.31 9,0 16.06,-5.38 17.74,-15.3 z"
   id="path855" />
			<path
   class="st2"
   d="m 614.34,64.11 c 0,-4.26 -1.33,-7.83 -4.05,-10.2 -2.1,-1.89 -4.68,-3 -9.3,-3.7 l -5.66,-0.84 c -2.3,-0.35 -4.34,-1.19 -5.59,-2.31 -1.33,-1.19 -1.88,-2.79 -1.88,-4.61 0,-4.4 3.22,-7.76 9.08,-7.76 4.19,0 7.76,0.91 10.84,3.84 l 4.82,-4.75 c -4.27,-3.99 -8.87,-5.66 -15.45,-5.66 -10.34,0 -16.63,5.94 -16.63,14.61 0,4.05 1.19,7.2 3.64,9.51 2.17,2.03 5.38,3.42 9.44,3.99 l 5.87,0.84 c 2.94,0.42 4.19,0.91 5.45,2.1 1.33,1.19 1.96,3 1.96,5.17 0,4.82 -3.77,7.62 -10.27,7.62 -5.1,0 -9.08,-1.12 -12.72,-4.75 l -5.03,4.96 c 4.75,4.82 10.14,6.57 17.61,6.57 10.4,-0.03 17.87,-5.48 17.87,-14.63 z"
   id="path857" />
			<rect
   x="562.70001"
   y="28.530001"
   class="st2"
   width="7.5500002"
   height="49.759998"
   id="rect859" />
			<polygon
   class="st2"
   points="549.71,28.53 542.16,28.53 542.16,63.48 519.16,28.53 512.24,28.53 512.24,78.29 519.79,78.29 519.79,43.28 542.79,78.29 549.71,78.29 "
   id="polygon861" />
			<polygon
   class="st2"
   points="463.95,78.29 471.5,78.29 471.5,56.56 491.7,56.56 491.7,78.29 499.24,78.29 499.24,28.53 491.7,28.53 491.7,49.78 471.5,49.78 471.5,28.53 463.95,28.53 "
   id="polygon863" />
			<path
   class="st2"
   d="m 453.89,63.41 h -7.62 c -1.19,5.03 -4.61,8.52 -10.13,8.52 -2.93,0 -5.59,-1.12 -7.34,-3 -2.45,-2.66 -3,-5.52 -3,-15.52 0,-10 0.56,-12.86 3,-15.52 1.75,-1.89 4.4,-3 7.34,-3 5.52,0 8.88,3.49 10.06,8.53 h 7.69 c -1.75,-9.93 -8.6,-15.31 -17.75,-15.31 -5.17,0 -9.64,1.89 -13.07,5.31 -4.89,4.89 -4.82,10.41 -4.82,19.99 0,9.58 -0.07,15.1 4.82,19.99 3.42,3.43 7.9,5.31 13.07,5.31 9.01,0 16.07,-5.38 17.75,-15.3 z"
   id="path865" />
			<polygon
   class="st2"
   points="385.48,35.31 409.73,35.31 409.73,28.53 377.93,28.53 377.93,78.29 409.73,78.29 409.73,71.52 385.48,71.52 385.48,56.56 406.17,56.56 406.17,49.85 385.48,49.85 "
   id="polygon867" />
			<polygon
   class="st2"
   points="355.65,35.31 369.35,35.31 369.35,28.53 334.41,28.53 334.41,35.31 348.1,35.31 348.1,78.29 355.65,78.29 "
   id="polygon869" />
			<polygon
   class="st2"
   points="724.21,35.31 748.46,35.31 748.46,28.53 716.66,28.53 716.66,78.29 748.46,78.29 748.46,71.52 724.21,71.52 724.21,56.56 744.89,56.56 744.89,49.85 724.21,49.85 "
   id="polygon871" />
		</g>
		<g
   id="g883">
			<polygon
   class="st2"
   points="351.04,240.11 342.37,204.53 334.41,204.53 347.41,254.29 353.97,254.29 364.04,219.42 374.17,254.29 380.74,254.29 393.74,204.53 385.77,204.53 377.11,240.11 367.11,204.53 361.03,204.53 "
   id="polygon875" />
			<polygon
   class="st2"
   points="501.13,204.53 493.59,204.53 493.59,239.48 470.59,204.53 463.67,204.53 463.67,254.29 471.22,254.29 471.22,219.28 494.22,254.29 501.13,254.29 "
   id="polygon877" />
			<polygon
   class="st2"
   points="429.1,211.31 453.35,211.31 453.35,204.53 421.55,204.53 421.55,254.29 453.35,254.29 453.35,247.52 429.1,247.52 429.1,232.56 449.78,232.56 449.78,225.85 429.1,225.85 "
   id="polygon879" />
			<rect
   x="401"
   y="204.53"
   class="st2"
   width="7.5500002"
   height="49.759998"
   id="rect881" />
		</g>
		<path
   class="st3"
   d="m 202.75,138.27 c 0.46,-0.08 0.8,-0.14 1.25,-0.25 11.39,-2.89 19.88,-13.87 19.88,-26.08 l -0.26,-83.47 h 30.87 v 83.91 c 0.03,29.16 -22.11,53.41 -50.49,56.41 l -1.25,0.13 z m -9.18,30.65 -1.6,-0.13 c -28.37,-2.96 -50.31,-26.94 -50.31,-56.1 V 28.48 h 30.67 l -0.05,83.47 c 0,12.21 8.49,23.19 19.88,26.08 0.5,0.12 0.89,0.2 1.4,0.29 z m -74.93,85.53 v -49.89 h -9.74 v 49.89 z m 66.22,0 v -8.69 h -23.12 v -12.12 h 19.69 v -8.69 h -19.69 v -11.7 h 23.12 v -8.69 H 152 v 49.89 z m 69.77,0 v -49.89 h -9.74 v 30.55 l -19.76,-30.55 h -8.69 v 49.89 h 9.74 v -30.62 l 19.76,30.62 z M 85.72,204.56 H 75.56 l -7.78,31.46 -9.11,-31.46 h -7.29 l -9.11,31.46 -7.71,-31.46 H 24.42 l 13.31,49.89 h 8.13 l 9.18,-30.27 9.18,30.27 h 8.13 z M 21.79,28.48 H 127.65 V 58.75 H 21.79 Z M 60.1,168.12 V 67.55 H 90.37 V 168.13 H 60.1 Z M 255.11,0 c 15.65,0 28.29,12.7 28.29,28.36 l 0.06,226.74 c 0,15.66 -12.74,28.36 -28.39,28.36 H 28.34 C 12.7,283.46 0,270.77 0,255.11 L 0.02,28.36 C 0.02,12.7 12.68,0 28.32,0 Z"
   id="path885" />
	</g>
</g></g></svg>
